<?xml version="1.0" encoding="UTF-8" standalone="no"?>
<!-- Created with Inkscape (http://www.inkscape.org/) -->

<svg
   xmlns:dc="http://purl.org/dc/elements/1.1/"
   xmlns:cc="http://creativecommons.org/ns#"
   xmlns:rdf="http://www.w3.org/1999/02/22-rdf-syntax-ns#"
   xmlns:svg="http://www.w3.org/2000/svg"
   xmlns="http://www.w3.org/2000/svg"
   xmlns:sodipodi="http://sodipodi.sourceforge.net/DTD/sodipodi-0.dtd"
   xmlns:inkscape="http://www.inkscape.org/namespaces/inkscape"
   width="450"
   height="45"
   id="svg2"
   version="1.1"
   inkscape:version="0.48.4 r9939"
   sodipodi:docname="llP.pdf">
  <defs
     id="defs4" />
  <sodipodi:namedview
     id="base"
     pagecolor="#ffffff"
     bordercolor="#666666"
     borderopacity="1.0"
     inkscape:pageopacity="0.0"
     inkscape:pageshadow="2"
     inkscape:zoom="1.4142136"
     inkscape:cx="255.14043"
     inkscape:cy="74.325578"
     inkscape:document-units="px"
     inkscape:current-layer="layer1"
     showgrid="false"
     units="in"
     inkscape:window-width="1366"
     inkscape:window-height="718"
     inkscape:window-x="0"
     inkscape:window-y="0"
     inkscape:window-maximized="1" />
  <metadata
     id="metadata7">
    <rdf:RDF>
      <cc:Work
         rdf:about="">
        <dc:format>image/svg+xml</dc:format>
        <dc:type
           rdf:resource="http://purl.org/dc/dcmitype/StillImage" />
        <dc:title></dc:title>
      </cc:Work>
    </rdf:RDF>
  </metadata>
  <g
     inkscape:label="Layer 1"
     inkscape:groupmode="layer"
     id="layer1"
     transform="translate(0,-1007.3597)">
    <g
       id="g5117"
       transform="translate(1.4142136,105.35891)">
      <path
         d="m 22.5005,1029.8592 405,0"
         style="fill:none;stroke:#3191c9;stroke-width:3.2750001;stroke-linecap:round;stroke-linejoin:round;stroke-miterlimit:10;stroke-opacity:1;stroke-dasharray:none"
         id="path3041"
         inkscape:connector-curvature="0" />
      <path
         transform="matrix(0.97033492,-0.24176466,0.24176466,0.97033492,-83.14342,1078.8962)"
         d="m 154.89445,-20.979382 c 0,2.255773 -18.28665,4.084438 -40.84438,4.084438 -22.557726,0 -40.844378,-1.828665 -40.844378,-4.084438 0,-2.255772 18.286652,-4.084437 40.844378,-4.084437 22.55773,0 40.84438,1.828665 40.84438,4.084437 z"
         sodipodi:ry="4.0844378"
         sodipodi:rx="40.844379"
         sodipodi:cy="-20.979382"
         sodipodi:cx="114.05007"
         id="path3145"
         style="fill:none;stroke:#999999;stroke-width:1.29999995;stroke-linecap:round;stroke-linejoin:round;stroke-miterlimit:10;stroke-opacity:1;stroke-dasharray:none;stroke-dashoffset:0"
         sodipodi:type="arc" />
      <path
         d="m 46.226468,1019.9607 c 0,-2.505 2.05125,-4.5562 4.55625,-4.5562 2.505,0 4.55625,2.0512 4.55625,4.5562 0,2.505 -2.05125,4.5563 -4.55625,4.5563 -2.505,0 -4.55625,-2.0513 -4.55625,-4.5563"
         style="fill:#3191c9;fill-opacity:1;fill-rule:nonzero;stroke:none"
         id="path3043-71"
         inkscape:connector-curvature="0" />
      <path
         d="m 7.310941,1029.8602 c 0,-8.35 6.8375,-15.1875 15.187497,-15.1875 8.35,0 15.1875,6.8375 15.1875,15.1875 0,8.35 -6.8375,15.1875 -15.1875,15.1875 -8.349997,0 -15.187497,-6.8375 -15.187497,-15.1875"
         style="fill:#999999;fill-opacity:1;fill-rule:nonzero;stroke:none"
         id="path3043-5-9"
         inkscape:connector-curvature="0" />
      <path
         transform="matrix(0.97033492,-0.24176466,0.24176466,0.97033492,47.87283,1078.8962)"
         d="m 154.89445,-20.979382 c 0,2.255773 -18.28665,4.084438 -40.84438,4.084438 -22.557726,0 -40.844378,-1.828665 -40.844378,-4.084438 0,-2.255772 18.286652,-4.084437 40.844378,-4.084437 22.55773,0 40.84438,1.828665 40.84438,4.084437 z"
         sodipodi:ry="4.0844378"
         sodipodi:rx="40.844379"
         sodipodi:cy="-20.979382"
         sodipodi:cx="114.05007"
         id="path3145-4-9"
         style="fill:none;stroke:#999999;stroke-width:1.29999995;stroke-linecap:round;stroke-linejoin:round;stroke-miterlimit:10;stroke-opacity:1;stroke-dasharray:none;stroke-dashoffset:0"
         sodipodi:type="arc" />
      <path
         d="m 177.24272,1019.9607 c 0,-2.505 2.05125,-4.5562 4.55625,-4.5562 2.505,0 4.55625,2.0512 4.55625,4.5562 0,2.505 -2.05125,4.5563 -4.55625,4.5563 -2.505,0 -4.55625,-2.0513 -4.55625,-4.5563"
         style="fill:#3191c9;fill-opacity:1;fill-rule:nonzero;stroke:none"
         id="path3043-71-8-1"
         inkscape:connector-curvature="0" />
      <path
         d="m 138.32719,1029.8602 c 0,-8.35 6.8375,-15.1875 15.1875,-15.1875 8.35,0 15.1875,6.8375 15.1875,15.1875 0,8.35 -6.8375,15.1875 -15.1875,15.1875 -8.35,0 -15.1875,-6.8375 -15.1875,-15.1875"
         style="fill:#999999;fill-opacity:1;fill-rule:nonzero;stroke:none"
         id="path3043-5-9-1-6"
         inkscape:connector-curvature="0" />
      <path
         transform="matrix(0.97033492,-0.24176466,0.24176466,0.97033492,309.90534,1078.8962)"
         d="m 154.89445,-20.979382 c 0,2.255773 -18.28665,4.084438 -40.84438,4.084438 -22.557726,0 -40.844378,-1.828665 -40.844378,-4.084438 0,-2.255772 18.286652,-4.084437 40.844378,-4.084437 22.55773,0 40.84438,1.828665 40.84438,4.084437 z"
         sodipodi:ry="4.0844378"
         sodipodi:rx="40.844379"
         sodipodi:cy="-20.979382"
         sodipodi:cx="114.05007"
         id="path3145-4-99"
         style="fill:none;stroke:#999999;stroke-width:1.29999995;stroke-linecap:round;stroke-linejoin:round;stroke-miterlimit:10;stroke-opacity:1;stroke-dasharray:none;stroke-dashoffset:0"
         sodipodi:type="arc" />
      <path
         d="m 439.27523,1019.9607 c 0,-2.505 2.05125,-4.5562 4.55625,-4.5562 2.505,0 4.55625,2.0512 4.55625,4.5562 0,2.505 -2.05125,4.5563 -4.55625,4.5563 -2.505,0 -4.55625,-2.0513 -4.55625,-4.5563"
         style="fill:#3191c9;fill-opacity:1;fill-rule:nonzero;stroke:none"
         id="path3043-71-8-25"
         inkscape:connector-curvature="0" />
      <path
         d="m 400.3597,1029.8602 c 0,-8.35 6.8375,-15.1875 15.1875,-15.1875 8.35,0 15.1875,6.8375 15.1875,15.1875 0,8.35 -6.8375,15.1875 -15.1875,15.1875 -8.35,0 -15.1875,-6.8375 -15.1875,-15.1875"
         style="fill:#999999;fill-opacity:1;fill-rule:nonzero;stroke:none"
         id="path3043-5-9-1-98"
         inkscape:connector-curvature="0" />
      <path
         transform="matrix(0.97033492,-0.24176466,0.24176466,0.97033492,178.88907,1078.8962)"
         d="m 154.89445,-20.979382 c 0,2.255773 -18.28665,4.084438 -40.84438,4.084438 -22.557726,0 -40.844378,-1.828665 -40.844378,-4.084438 0,-2.255772 18.286652,-4.084437 40.844378,-4.084437 22.55773,0 40.84438,1.828665 40.84438,4.084437 z"
         sodipodi:ry="4.0844378"
         sodipodi:rx="40.844379"
         sodipodi:cy="-20.979382"
         sodipodi:cx="114.05007"
         id="path3145-4-99-5"
         style="fill:none;stroke:#999999;stroke-width:1.29999995;stroke-linecap:round;stroke-linejoin:round;stroke-miterlimit:10;stroke-opacity:1;stroke-dasharray:none;stroke-dashoffset:0"
         sodipodi:type="arc" />
      <path
         d="m 308.25896,1019.9607 c 0,-2.505 2.05125,-4.5562 4.55625,-4.5562 2.505,0 4.55625,2.0512 4.55625,4.5562 0,2.505 -2.05125,4.5563 -4.55625,4.5563 -2.505,0 -4.55625,-2.0513 -4.55625,-4.5563"
         style="fill:#3191c9;fill-opacity:1;fill-rule:nonzero;stroke:none"
         id="path3043-71-8-25-5"
         inkscape:connector-curvature="0" />
      <path
         d="m 269.34343,1029.8602 c 0,-8.35 6.8375,-15.1875 15.1875,-15.1875 8.35,0 15.1875,6.8375 15.1875,15.1875 0,8.35 -6.8375,15.1875 -15.1875,15.1875 -8.35,0 -15.1875,-6.8375 -15.1875,-15.1875"
         style="fill:#999999;fill-opacity:1;fill-rule:nonzero;stroke:none"
         id="path3043-5-9-1-98-4"
         inkscape:connector-curvature="0" />
    </g>
    <g
       id="g4989">
      <path
         transform="matrix(0.97033492,-0.24176466,0.24176466,0.97033492,-44.732206,914.0124)"
         d="m 154.89445,-20.979382 a 40.844379,4.0844378 0 1 1 -81.688758,0 40.844379,4.0844378 0 1 1 81.688758,0 z"
         sodipodi:ry="4.0844378"
         sodipodi:rx="40.844379"
         sodipodi:cy="-20.979382"
         sodipodi:cx="114.05007"
         id="path3145-4"
         style="fill:none;stroke:#999999;stroke-width:0.50000000000000000;stroke-linecap:round;stroke-linejoin:round;stroke-miterlimit:10;stroke-opacity:1;stroke-dasharray:none;stroke-dashoffset:0"
         sodipodi:type="arc" />
      <path
         d="m 84.637682,855.0769 c 0,-2.505 2.05125,-4.5562 4.55625,-4.5562 2.505,0 4.55625,2.0512 4.55625,4.5562 0,2.505 -2.05125,4.5563 -4.55625,4.5563 -2.505,0 -4.55625,-2.0513 -4.55625,-4.5563"
         style="fill:#999999;fill-opacity:1;fill-rule:nonzero;stroke:none"
         id="path3043-71-5"
         inkscape:connector-curvature="0" />
      <path
         d="m 45.722155,864.9764 c 0,-8.35 6.8375,-15.1875 15.187497,-15.1875 8.35,0 15.1875,6.8375 15.1875,15.1875 0,8.35 -6.8375,15.1875 -15.1875,15.1875 -8.349997,0 -15.187497,-6.8375 -15.187497,-15.1875"
         style="fill:#999999;fill-opacity:1;fill-rule:nonzero;stroke:none"
         id="path3043-5-9-5"
         inkscape:connector-curvature="0" />
    </g>
    <g
       id="g4994">
      <path
         transform="matrix(0.97033492,-0.24176466,0.24176466,0.97033492,86.284044,914.0124)"
         d="m 154.89445,-20.979382 a 40.844379,4.0844378 0 1 1 -81.688758,0 40.844379,4.0844378 0 1 1 81.688758,0 z"
         sodipodi:ry="4.0844378"
         sodipodi:rx="40.844379"
         sodipodi:cy="-20.979382"
         sodipodi:cx="114.05007"
         id="path3145-4-9-5"
         style="fill:none;stroke:#999999;stroke-width:0.50000000000000000;stroke-linecap:round;stroke-linejoin:round;stroke-miterlimit:10;stroke-opacity:1;stroke-dasharray:none;stroke-dashoffset:0"
         sodipodi:type="arc" />
      <path
         d="m 215.65393,855.0769 c 0,-2.505 2.05125,-4.5562 4.55625,-4.5562 2.505,0 4.55625,2.0512 4.55625,4.5562 0,2.505 -2.05125,4.5563 -4.55625,4.5563 -2.505,0 -4.55625,-2.0513 -4.55625,-4.5563"
         style="fill:#999999;fill-opacity:1;fill-rule:nonzero;stroke:none"
         id="path3043-71-8-1-9"
         inkscape:connector-curvature="0" />
      <path
         d="m 176.7384,864.9764 c 0,-8.35 6.8375,-15.1875 15.1875,-15.1875 8.35,0 15.1875,6.8375 15.1875,15.1875 0,8.35 -6.8375,15.1875 -15.1875,15.1875 -8.35,0 -15.1875,-6.8375 -15.1875,-15.1875"
         style="fill:#999999;fill-opacity:1;fill-rule:nonzero;stroke:none"
         id="path3043-5-9-1-6-1"
         inkscape:connector-curvature="0" />
    </g>
    <g
       id="g5004">
      <path
         transform="matrix(0.97033492,-0.24176466,0.24176466,0.97033492,348.31655,914.0124)"
         d="m 154.89445,-20.979382 a 40.844379,4.0844378 0 1 1 -81.688758,0 40.844379,4.0844378 0 1 1 81.688758,0 z"
         sodipodi:ry="4.0844378"
         sodipodi:rx="40.844379"
         sodipodi:cy="-20.979382"
         sodipodi:cx="114.05007"
         id="path3145-4-99-2"
         style="fill:none;stroke:#999999;stroke-width:0.50000000000000000;stroke-linecap:round;stroke-linejoin:round;stroke-miterlimit:10;stroke-opacity:1;stroke-dasharray:none;stroke-dashoffset:0"
         sodipodi:type="arc" />
      <path
         d="m 477.68644,855.0769 c 0,-2.505 2.05125,-4.5562 4.55625,-4.5562 2.505,0 4.55625,2.0512 4.55625,4.5562 0,2.505 -2.05125,4.5563 -4.55625,4.5563 -2.505,0 -4.55625,-2.0513 -4.55625,-4.5563"
         style="fill:#999999;fill-opacity:1;fill-rule:nonzero;stroke:none"
         id="path3043-71-8-25-51"
         inkscape:connector-curvature="0" />
      <path
         d="m 438.77091,864.9764 c 0,-8.35 6.8375,-15.1875 15.1875,-15.1875 8.35,0 15.1875,6.8375 15.1875,15.1875 0,8.35 -6.8375,15.1875 -15.1875,15.1875 -8.35,0 -15.1875,-6.8375 -15.1875,-15.1875"
         style="fill:#999999;fill-opacity:1;fill-rule:nonzero;stroke:none"
         id="path3043-5-9-1-98-3"
         inkscape:connector-curvature="0" />
    </g>
    <g
       id="g4999">
      <path
         transform="matrix(0.97033492,-0.24176466,0.24176466,0.97033492,217.30028,914.0124)"
         d="m 154.89445,-20.979382 a 40.844379,4.0844378 0 1 1 -81.688758,0 40.844379,4.0844378 0 1 1 81.688758,0 z"
         sodipodi:ry="4.0844378"
         sodipodi:rx="40.844379"
         sodipodi:cy="-20.979382"
         sodipodi:cx="114.05007"
         id="path3145-4-99-5-2"
         style="fill:none;stroke:#999999;stroke-width:0.50000000000000000;stroke-linecap:round;stroke-linejoin:round;stroke-miterlimit:10;stroke-opacity:1;stroke-dasharray:none;stroke-dashoffset:0"
         sodipodi:type="arc" />
      <path
         d="m 346.67017,855.0769 c 0,-2.505 2.05125,-4.5562 4.55625,-4.5562 2.505,0 4.55625,2.0512 4.55625,4.5562 0,2.505 -2.05125,4.5563 -4.55625,4.5563 -2.505,0 -4.55625,-2.0513 -4.55625,-4.5563"
         style="fill:#999999;fill-opacity:1;fill-rule:nonzero;stroke:none"
         id="path3043-71-8-25-5-4"
         inkscape:connector-curvature="0" />
      <path
         d="m 307.75464,864.9764 c 0,-8.35 6.8375,-15.1875 15.1875,-15.1875 8.35,0 15.1875,6.8375 15.1875,15.1875 0,8.35 -6.8375,15.1875 -15.1875,15.1875 -8.35,0 -15.1875,-6.8375 -15.1875,-15.1875"
         style="fill:#999999;fill-opacity:1;fill-rule:nonzero;stroke:none"
         id="path3043-5-9-1-98-4-4"
         inkscape:connector-curvature="0" />
    </g>
    <path
       inkscape:connector-curvature="0"
       id="path3041-4"
       style="fill:none;stroke:#3191c9;stroke-width:3.2750001;stroke-linecap:round;stroke-linejoin:round;stroke-miterlimit:10;stroke-opacity:1;stroke-dasharray:none"
       d="m 60.911714,864.9754 404.999996,0" />
    <path
       inkscape:connector-curvature="0"
       id="path3041-5"
       style="fill:none;stroke:#3191c9;stroke-width:2;stroke-linecap:round;stroke-linejoin:round;stroke-miterlimit:10;stroke-opacity:1;stroke-dasharray:none"
       d="m -9.499496,1019.8592 464.999996,0"
       sodipodi:nodetypes="cc" />
    <path
       sodipodi:type="arc"
       style="fill:none;stroke:#999999;stroke-width:1.29999995;stroke-linecap:round;stroke-linejoin:round;stroke-miterlimit:10;stroke-opacity:1;stroke-dasharray:none;stroke-dashoffset:0"
       id="path3145-5"
       sodipodi:cx="114.05007"
       sodipodi:cy="-20.979382"
       sodipodi:rx="40.844379"
       sodipodi:ry="4.0844378"
       d="m 154.89445,-20.979382 a 40.844379,4.0844378 0 1 1 -81.688758,0 40.844379,4.0844378 0 1 1 81.688758,0 z"
       transform="matrix(0.97033492,-0.24176466,0.24176466,0.97033492,-83.14342,1078.8962)" />
    <path
       inkscape:connector-curvature="0"
       id="path3043-71-6"
       style="fill:#3191c9;fill-opacity:1;fill-rule:nonzero;stroke:none"
       d="m 46.226464,1019.9607 c 0,-2.505 2.05125,-4.5562 4.55625,-4.5562 2.505,0 4.55625,2.0512 4.55625,4.5562 0,2.505 -2.05125,4.5563 -4.55625,4.5563 -2.505,0 -4.55625,-2.0513 -4.55625,-4.5563" />
    <path
       inkscape:connector-curvature="0"
       id="path3043-5-9-9"
       style="fill:#999999;fill-opacity:1;fill-rule:nonzero;stroke:none"
       d="m 7.310941,1029.8602 c 0,-8.35 6.837503,-15.1875 15.187493,-15.1875 8.35,0 15.1875,6.8375 15.1875,15.1875 0,8.35 -6.8375,15.1875 -15.1875,15.1875 -8.34999,0 -15.187493,-6.8375 -15.187493,-15.1875" />
    <path
       sodipodi:type="arc"
       style="fill:none;stroke:#999999;stroke-width:1.29999995;stroke-linecap:round;stroke-linejoin:round;stroke-miterlimit:10;stroke-opacity:1;stroke-dasharray:none;stroke-dashoffset:0"
       id="path3145-4-9-0"
       sodipodi:cx="114.05007"
       sodipodi:cy="-20.979382"
       sodipodi:rx="40.844379"
       sodipodi:ry="4.0844378"
       d="m 154.89445,-20.979382 a 40.844379,4.0844378 0 1 1 -81.688758,0 40.844379,4.0844378 0 1 1 81.688758,0 z"
       transform="matrix(0.97033492,-0.24176466,0.24176466,0.97033492,47.872834,1078.8962)" />
    <path
       inkscape:connector-curvature="0"
       id="path3043-71-8-1-5"
       style="fill:#3191c9;fill-opacity:1;fill-rule:nonzero;stroke:none"
       d="m 177.24272,1019.9607 c 0,-2.505 2.05125,-4.5562 4.55625,-4.5562 2.505,0 4.55625,2.0512 4.55625,4.5562 0,2.505 -2.05125,4.5563 -4.55625,4.5563 -2.505,0 -4.55625,-2.0513 -4.55625,-4.5563" />
    <path
       inkscape:connector-curvature="0"
       id="path3043-5-9-1-6-7"
       style="fill:#999999;fill-opacity:1;fill-rule:nonzero;stroke:none"
       d="m 138.32719,1029.8602 c 0,-8.35 6.8375,-15.1875 15.1875,-15.1875 8.35,0 15.1875,6.8375 15.1875,15.1875 0,8.35 -6.8375,15.1875 -15.1875,15.1875 -8.35,0 -15.1875,-6.8375 -15.1875,-15.1875" />
    <path
       sodipodi:type="arc"
       style="fill:none;stroke:#999999;stroke-width:1.29999995;stroke-linecap:round;stroke-linejoin:round;stroke-miterlimit:10;stroke-opacity:1;stroke-dasharray:none;stroke-dashoffset:0"
       id="path3145-4-99-4"
       sodipodi:cx="114.05007"
       sodipodi:cy="-20.979382"
       sodipodi:rx="40.844379"
       sodipodi:ry="4.0844378"
       d="m 154.89445,-20.979382 a 40.844379,4.0844378 0 1 1 -81.688758,0 40.844379,4.0844378 0 1 1 81.688758,0 z"
       transform="matrix(0.97033492,-0.24176466,0.24176466,0.97033492,309.90534,1078.8962)" />
    <path
       inkscape:connector-curvature="0"
       id="path3043-71-8-25-2"
       style="fill:#3191c9;fill-opacity:1;fill-rule:nonzero;stroke:none"
       d="m 439.27523,1019.9607 c 0,-2.505 2.05125,-4.5562 4.55625,-4.5562 2.505,0 4.55625,2.0512 4.55625,4.5562 0,2.505 -2.05125,4.5563 -4.55625,4.5563 -2.505,0 -4.55625,-2.0513 -4.55625,-4.5563" />
    <path
       inkscape:connector-curvature="0"
       id="path3043-5-9-1-98-48"
       style="fill:#999999;fill-opacity:1;fill-rule:nonzero;stroke:none"
       d="m 400.3597,1029.8602 c 0,-8.35 6.8375,-15.1875 15.1875,-15.1875 8.35,0 15.1875,6.8375 15.1875,15.1875 0,8.35 -6.8375,15.1875 -15.1875,15.1875 -8.35,0 -15.1875,-6.8375 -15.1875,-15.1875" />
    <path
       sodipodi:type="arc"
       style="fill:none;stroke:#999999;stroke-width:1.29999995;stroke-linecap:round;stroke-linejoin:round;stroke-miterlimit:10;stroke-opacity:1;stroke-dasharray:none;stroke-dashoffset:0"
       id="path3145-4-99-5-5"
       sodipodi:cx="114.05007"
       sodipodi:cy="-20.979382"
       sodipodi:rx="40.844379"
       sodipodi:ry="4.0844378"
       d="m 154.89445,-20.979382 a 40.844379,4.0844378 0 1 1 -81.688758,0 40.844379,4.0844378 0 1 1 81.688758,0 z"
       transform="matrix(0.97033492,-0.24176466,0.24176466,0.97033492,178.88907,1078.8962)" />
    <path
       inkscape:connector-curvature="0"
       id="path3043-71-8-25-5-1"
       style="fill:#3191c9;fill-opacity:1;fill-rule:nonzero;stroke:none"
       d="m 308.25896,1019.9607 c 0,-2.505 2.05125,-4.5562 4.55625,-4.5562 2.505,0 4.55625,2.0512 4.55625,4.5562 0,2.505 -2.05125,4.5563 -4.55625,4.5563 -2.505,0 -4.55625,-2.0513 -4.55625,-4.5563" />
    <path
       inkscape:connector-curvature="0"
       id="path3043-5-9-1-98-4-44"
       style="fill:#999999;fill-opacity:1;fill-rule:nonzero;stroke:none"
       d="m 269.34343,1029.8602 c 0,-8.35 6.8375,-15.1875 15.1875,-15.1875 8.35,0 15.1875,6.8375 15.1875,15.1875 0,8.35 -6.8375,15.1875 -15.1875,15.1875 -8.35,0 -15.1875,-6.8375 -15.1875,-15.1875" />
    <text
       xml:space="preserve"
       style="font-size:16px;font-style:normal;font-variant:normal;font-weight:normal;font-stretch:normal;line-height:125%;letter-spacing:0px;word-spacing:0px;fill:#000000;fill-opacity:1;stroke:none;font-family:Nimbus Roman No9 L;-inkscape-font-specification:Nimbus Roman No9 L"
       x="26.870058"
       y="77.526909"
       id="text5113"
       sodipodi:linespacing="125%"
       transform="translate(0,1007.3597)"><tspan
         sodipodi:role="line"
         id="tspan5115"
         x="26.870058"
         y="77.526909">7.312</tspan></text>
    <text
       xml:space="preserve"
       style="font-size:16px;font-style:normal;font-variant:normal;font-weight:normal;font-stretch:normal;line-height:125%;letter-spacing:0px;word-spacing:0px;fill:#000000;fill-opacity:1;stroke:none;font-family:Nimbus Roman No9 L;-inkscape-font-specification:Nimbus Roman No9 L"
       x="-37.476658"
       y="1082.7653"
       id="text5132"
       sodipodi:linespacing="125%"><tspan
         sodipodi:role="line"
         id="tspan5134"
         x="-37.476658"
         y="1082.7653">-17.844</tspan></text>
  </g>
</svg>
